<?xml version="1.0" standalone="no"?>
<!DOCTYPE svg PUBLIC "-//W3C//DTD SVG 20010904//EN"
 "http://www.w3.org/TR/2001/REC-SVG-20010904/DTD/svg10.dtd">
<svg version="1.0" xmlns="http://www.w3.org/2000/svg"
 width="55.000000pt" height="70.000000pt" viewBox="0 0 55.000000 70.000000"
 preserveAspectRatio="xMidYMid meet">

<g transform="translate(0.000000,70.000000) scale(0.100000,-0.100000)"
fill="white" stroke="none">
<path d="M190 654 c0 -63 -31 -124 -83 -167 -24 -19 -56 -59 -72 -88 -24 -45
-29 -65 -29 -124 0 -253 306 -368 474 -178 75 86 88 204 33 305 -28 51 -74 99
-79 83 -10 -26 -45 -75 -54 -75 -5 0 -10 17 -10 38 0 76 -81 200 -159 242 -20
10 -21 8 -21 -36z m110 -237 c0 -71 83 -115 131 -71 17 16 19 15 29 -10 24
-63 8 -140 -38 -189 -47 -50 -98 -70 -164 -65 -64 5 -93 21 -142 81 -61 75
-42 199 41 266 22 17 52 52 68 77 l30 47 22 -49 c13 -27 23 -66 23 -87z"/>
</g>
</svg>
