<?xml version="1.0" standalone="no"?>
<!DOCTYPE svg PUBLIC "-//W3C//DTD SVG 20010904//EN"
 "http://www.w3.org/TR/2001/REC-SVG-20010904/DTD/svg10.dtd">
<svg version="1.0" xmlns="http://www.w3.org/2000/svg"
 width="55.000000pt" height="70.000000pt" viewBox="0 0 55.000000 70.000000"
 preserveAspectRatio="xMidYMid meet">

<g transform="translate(0.000000,70.000000) scale(0.100000,-0.100000)"
fill="#FF2727" stroke="none">
<path d="M190 647 c0 -62 -34 -125 -92 -169 -89 -67 -119 -219 -66 -323 51
-99 133 -149 243 -149 56 0 80 6 121 26 119 62 176 188 140 311 -15 52 -69
136 -91 144 -5 1 -19 -14 -30 -34 -29 -53 -41 -51 -48 6 -10 88 -79 189 -156
231 -20 10 -21 8 -21 -43z m98 -166 c7 -19 12 -49 12 -68 0 -66 74 -105 127
-68 20 14 23 14 33 -4 26 -49 5 -156 -39 -195 l-21 -19 6 30 c6 29 -26 123
-41 123 -4 0 -15 -10 -24 -22 -18 -21 -18 -21 -24 16 -6 36 -49 106 -66 106
-4 0 -13 -18 -20 -40 -6 -22 -23 -47 -36 -56 -31 -20 -60 -94 -50 -131 l6 -27
-22 19 c-51 46 -64 146 -29 215 11 21 37 53 58 70 21 16 51 51 67 75 25 41 29
43 40 28 7 -10 17 -33 23 -52z"/>
</g>
</svg>
