<svg width="20" height="20" viewBox="0 0 20 20" fill="none" xmlns="http://www.w3.org/2000/svg">
<g id="Frame" clip-path="url(#clip0_1_8215)">
<g id="Group">
<path id="Vector" fill-rule="evenodd" clip-rule="evenodd" d="M9.99998 3.86667C11.8778 3.86667 13.1444 4.67778 13.8667 5.35556L16.6889 2.6C14.9555 0.988889 12.7 0 9.99998 0C6.08887 0 2.71109 2.24444 1.06665 5.51111L4.29998 8.02222C5.11109 5.61111 7.35554 3.86667 9.99998 3.86667Z" fill="#EA4335"/>
<path id="Vector_2" fill-rule="evenodd" clip-rule="evenodd" d="M19.6 10.2222C19.6 9.39996 19.5333 8.79996 19.3889 8.17773H10V11.8888H15.5111C15.4 12.8111 14.8 14.2 13.4667 15.1333L16.6222 17.5777C18.5111 15.8333 19.6 13.2666 19.6 10.2222Z" fill="#4285F4"/>
<path id="Vector_3" fill-rule="evenodd" clip-rule="evenodd" d="M4.31111 11.9779C4.09262 11.3413 3.98002 10.6732 3.97778 10.0001C3.97778 9.31123 4.1 8.64456 4.3 8.02234L1.06667 5.51123C0.366377 6.90404 0.0011171 8.44117 0 10.0001C0 11.6112 0.388889 13.1335 1.06667 14.489L4.31111 11.9779Z" fill="#FBBC05"/>
<path id="Vector_4" fill-rule="evenodd" clip-rule="evenodd" d="M10.0001 20C12.7001 20 14.9668 19.1111 16.6223 17.5778L13.4668 15.1333C12.6223 15.7222 11.489 16.1333 10.0001 16.1333C7.35566 16.1333 5.11121 14.3889 4.31121 11.9778L1.07788 14.4889C2.72233 17.7556 6.08899 20 10.0001 20Z" fill="#34A853"/>
</g>
</g>
<defs>
<clipPath id="clip0_1_8215">
<rect width="20" height="20" fill="white"/>
</clipPath>
</defs>
</svg>
