<svg width="66" height="66" viewBox="0 0 66 66" fill="none" xmlns="http://www.w3.org/2000/svg">
<g id="Group 55791">
<g id="360">
<rect id="Rectangle 256" x="0.516365" y="0.516365" width="64.9673" height="64.9673" rx="14.4836" fill="white" stroke="#DEDEDE" stroke-width="1.03273"/>
<g id="360 icon" filter="url(#filter0_d_8_6290)">
<path id="Vector" d="M33.218 47.4738V43.9996C33.0461 43.9996 32.9602 43.9996 32.8743 43.9996C30.8979 43.9003 28.8357 43.9003 26.8594 43.7018C25.4845 43.6026 24.0237 43.3048 22.6489 43.1062C21.5318 42.9077 20.4148 42.7092 19.2977 42.4114C17.9229 42.0144 16.548 41.518 15.1732 41.0217C13.9702 40.5254 12.8531 39.9299 11.822 39.0365C11.3064 38.6394 10.7909 38.0439 10.5331 37.349C10.0175 36.3564 10.1035 35.066 10.7909 34.1726C11.3924 33.2793 12.1657 32.5845 13.1109 31.9889C14.228 31.294 15.431 30.6985 16.634 30.3014C17.4932 30.0036 18.3525 29.7058 19.2977 29.5073C19.2977 29.8051 19.2977 30.1029 19.2977 30.4999C19.2977 30.5992 19.1259 30.6985 18.954 30.7977C17.4073 31.1948 15.9465 31.8896 14.6576 32.783C14.228 33.0808 13.7983 33.5771 13.3687 33.9741C12.5954 34.9667 12.7672 35.9594 13.4546 36.8527C14.0561 37.5476 14.6576 38.0439 15.431 38.4409C16.634 39.1358 18.0088 39.6321 19.2977 39.9299C20.7585 40.3269 22.3052 40.6247 23.766 40.8232C26.8594 41.3195 29.8668 41.518 32.9602 41.518H33.218V37.9446C33.3039 37.9446 33.3899 38.0439 33.3899 38.1431C34.6788 39.6321 35.8818 41.0217 37.1707 42.5107C37.4285 42.7092 37.3425 42.9077 37.1707 43.1062C35.8818 44.4959 34.6788 45.9848 33.3899 47.3745C33.3899 47.2752 33.3039 47.2752 33.218 47.4738Z" fill="#8A8A8A"/>
<path id="Vector_2" d="M39.2346 43.5979V41.0171C39.4065 41.0171 39.4924 40.9179 39.6643 40.9179C41.2969 40.6201 42.9295 40.3223 44.5621 40.0245C46.1088 39.7267 47.6555 39.2304 49.1163 38.4363C49.8896 38.0393 50.663 37.543 51.3504 36.9474C52.3815 35.8555 52.3815 34.5651 51.3504 33.4732C50.7489 32.8777 50.0615 32.2821 49.2882 31.9843C48.5148 31.5873 47.6555 31.2895 46.7963 30.8924C46.7103 30.8924 46.6244 30.7932 46.6244 30.6939C46.6244 30.3961 46.6244 30.0983 46.6244 29.7013C47.2259 29.8998 47.8274 29.9991 48.3429 30.2969C49.3741 30.7932 50.4911 31.1902 51.5223 31.7858C52.5534 32.2821 53.4127 33.0762 54.1001 34.0688C54.9594 35.26 54.9594 37.0467 53.9282 38.1385C53.1549 39.0319 52.2097 39.826 51.1786 40.3223C50.0615 40.9179 48.9444 41.3149 47.7415 41.8112C46.8822 42.109 45.937 42.4068 44.9918 42.6053C43.4451 42.9031 41.9843 43.2009 40.4376 43.4987C40.1798 43.4987 39.7502 43.5979 39.2346 43.5979Z" fill="#8A8A8A"/>
<path id="Vector_3" d="M46.8814 22.6562C45.8502 22.6562 44.991 23.6489 44.991 24.84C44.991 26.0312 45.8502 27.0238 46.8814 27.0238C47.9125 27.0238 48.7718 26.0312 48.7718 24.84C48.8577 23.6489 47.9985 22.6562 46.8814 22.6562C46.9673 22.6562 46.8814 22.6562 46.8814 22.6562ZM46.8814 26.0312C46.2799 26.0312 45.8503 25.5348 45.8503 24.84C45.8503 24.1452 46.2799 23.6489 46.8814 23.6489C47.4829 23.6489 47.9125 24.1452 47.9125 24.84C47.9125 25.5348 47.4829 26.0312 46.8814 26.0312Z" fill="#8A8A8A"/>
<path id="Vector_4" d="M21.1069 33.178C21.8802 33.6743 22.8254 33.9721 23.6847 33.9721C25.3173 33.9721 25.9188 32.9795 25.8329 32.0861C25.8329 30.6965 24.6299 30.1009 23.4269 30.1009H22.3099V28.5127H23.341C24.2862 28.5127 25.4033 28.0164 25.4033 26.9245C25.4033 26.1304 24.8877 25.4355 23.6847 25.4355C22.8254 25.4355 22.0521 25.7333 21.3647 26.2296L21.021 24.6414C21.9662 23.9466 23.0832 23.6488 24.2862 23.6488C26.5203 23.6488 27.6374 25.0385 27.6374 26.5274C27.6374 27.7186 26.95 28.8105 25.6611 29.3068C26.95 29.6046 27.9811 30.6965 27.9811 32.2847C27.9811 34.2699 26.4344 35.8581 23.7706 35.8581C22.6536 35.8581 21.6225 35.5603 20.6772 34.9648L21.1069 33.178Z" fill="#8B8A8A"/>
<path id="Vector_5" d="M35.2806 25.5348C34.9369 25.5348 34.5932 25.5348 34.2494 25.5348C31.9294 25.8326 30.7264 27.2223 30.5546 28.9097C31.242 28.1156 32.1013 27.7186 33.0465 27.7186C34.9369 27.7186 36.4836 29.2075 36.4836 31.5898C36.4836 33.9721 34.765 35.8581 32.7027 35.8581H32.6168C29.9531 35.8581 28.4923 33.6743 28.4923 30.6965C28.4064 28.7112 29.0938 26.8252 30.3827 25.4355C31.4998 24.3436 32.8746 23.7481 34.3354 23.6488C34.6791 23.6488 35.0228 23.6488 35.3665 23.6488L35.2806 25.5348ZM34.3354 31.7883C34.4213 30.5972 33.648 29.5053 32.6168 29.406C32.5309 29.406 32.445 29.406 32.359 29.406C31.5857 29.406 30.8983 29.9024 30.4686 30.6965C30.3827 30.895 30.2968 31.0935 30.2968 31.292C30.3827 32.6817 30.9842 34.0714 32.445 34.0714C33.6479 34.0714 34.4213 33.0788 34.3354 31.7883Z" fill="#8B8A8A"/>
<path id="Vector_6" d="M44.6554 29.7038C44.6554 33.2773 43.3665 35.8581 40.6168 35.8581C38.1248 35.8581 36.75 33.4758 36.75 29.8031C36.75 26.1304 38.2108 23.6488 40.7027 23.6488C43.2805 23.6488 44.6554 26.1304 44.6554 29.7038ZM38.7263 29.8031C38.7263 32.6817 39.4997 34.1707 40.6168 34.1707C41.9057 34.1707 42.5072 32.5825 42.5072 29.8031C42.5072 27.0237 41.8198 25.4355 40.6168 25.4355C39.5856 25.4355 38.7263 26.8252 38.7263 29.8031Z" fill="#8B8A8A"/>
</g>
</g>
</g>
<defs>
<filter id="filter0_d_8_6290" x="10.2017" y="22.6562" width="44.5229" height="25.8502" filterUnits="userSpaceOnUse" color-interpolation-filters="sRGB">
<feFlood flood-opacity="0" result="BackgroundImageFix"/>
<feColorMatrix in="SourceAlpha" type="matrix" values="0 0 0 0 0 0 0 0 0 0 0 0 0 0 0 0 0 0 127 0" result="hardAlpha"/>
<feOffset dy="1.03273"/>
<feColorMatrix type="matrix" values="0 0 0 0 1 0 0 0 0 1 0 0 0 0 1 0 0 0 1 0"/>
<feBlend mode="normal" in2="BackgroundImageFix" result="effect1_dropShadow_8_6290"/>
<feBlend mode="normal" in="SourceGraphic" in2="effect1_dropShadow_8_6290" result="shape"/>
</filter>
</defs>
</svg>
